{
  "accessors": [
    {
      "bufferView": 2,
      "componentType": 5126,
      "count": 8586,
      "max": [
        3.5985100269317627,
        3.972790002822876,
        4.337969779968262
      ],
      "min": [
        -3.5985100269317627,
        -2.929219961166382,
        -3.7688300609588623
      ],
      "type": "VEC3"
    },
    {
      "bufferView": 2,
      "byteOffset": 103032,
      "componentType": 5126,
      "count": 8586,
      "max": [
        0.999999463558197,
        0.9999783635139465,
        0.9995609521865845
      ],
      "min": [
        -0.999999463558197,
        -0.9998903870582581,
        -0.9999139308929443
      ],
      "type": "VEC3"
    },
    {
      "bufferView": 1,
      "componentType": 5126,
      "count": 8586,
      "max": [
        0.9771100282669067,
        0.9765499830245972
      ],
      "min": [
        0.022849999368190765,
        0.02501000091433525
      ],
      "type": "VEC2"
    },
    {
      "bufferView": 0,
      "componentType": 5125,
      "count": 50472,
      "type": "SCALAR"
    }
  ],
  "asset": {
    "extras": {
      "author": "Suprovo Basak (https://sketchfab.com/SuprovoRGB)",
      "license": "CC-BY-4.0 (http://creativecommons.org/licenses/by/4.0/)",
      "source": "https://sketchfab.com/3d-models/joker-mask-4d3aabcf3f56429ca564885d118032a6",
      "title": "Joker Mask"
    },
    "generator": "Sketchfab-12.68.0",
    "version": "2.0"
  },
  "bufferViews": [
    {
      "buffer": 0,
      "byteLength": 201888,
      "name": "floatBufferViews",
      "target": 34963
    },
    {
      "buffer": 0,
      "byteLength": 68688,
      "byteOffset": 201888,
      "byteStride": 8,
      "name": "floatBufferViews",
      "target": 34962
    },
    {
      "buffer": 0,
      "byteLength": 206064,
      "byteOffset": 270576,
      "byteStride": 12,
      "name": "floatBufferViews",
      "target": 34962
    }
  ],
  "buffers": [
    {
      "byteLength": 476640,
      "uri": "scene.bin"
    }
  ],
  "extensionsRequired": [
    "KHR_materials_pbrSpecularGlossiness"
  ],
  "extensionsUsed": [
    "KHR_materials_pbrSpecularGlossiness"
  ],
  "images": [
    {
      "uri": "textures/Joker_Mask_Material_diffuse.jpeg"
    }
  ],
  "materials": [
    {
      "doubleSided": true,
      "extensions": {
        "KHR_materials_pbrSpecularGlossiness": {
          "diffuseFactor": [
            1.0,
            1.0,
            1.0,
            1.0
          ],
          "diffuseTexture": {
            "index": 0
          },
          "glossinessFactor": 0.7,
          "specularFactor": [
            0.15,
            0.15,
            0.15
          ]
        }
      },
      "name": "Joker_Mask_Material"
    }
  ],
  "meshes": [
    {
      "name": "Joker_Mask_0",
      "primitives": [
        {
          "attributes": {
            "NORMAL": 1,
            "POSITION": 0,
            "TEXCOORD_0": 2
          },
          "indices": 3,
          "material": 0,
          "mode": 4
        }
      ]
    }
  ],
  "nodes": [
    {
      "children": [
        1
      ],
      "matrix": [
        0.03030303120613098,
        0.0,
        0.0,
        0.0,
        0.0,
        6.728624592196249e-18,
        -0.03030303120613098,
        0.0,
        0.0,
        0.03030303120613098,
        6.728624592196249e-18,
        0.0,
        0.0,
        0.0,
        0.0,
        1.0
      ],
      "name": "Sketchfab_model"
    },
    {
      "children": [
        2
      ],
      "name": "Root"
    },
    {
      "children": [
        3
      ],
      "name": "Joker_Mask"
    },
    {
      "mesh": 0,
      "name": "Joker_Mask_0"
    }
  ],
  "samplers": [
    {
      "magFilter": 9729,
      "minFilter": 9987,
      "wrapS": 10497,
      "wrapT": 10497
    }
  ],
  "scene": 0,
  "scenes": [
    {
      "name": "Sketchfab_Scene",
      "nodes": [
        0
      ]
    }
  ],
  "textures": [
    {
      "sampler": 0,
      "source": 0
    }
  ]
}
